<svg width="151" height="78" viewBox="0 0 151 78" fill="none" xmlns="http://www.w3.org/2000/svg">
<rect x="3.35352" y="0.735062" width="38.9824" height="38.9823" rx="19.4911" fill="#EF5840"/>
<path d="M30.5735 26.4868L31.0725 26.1374L30.5735 26.4868ZM25.442 30.0799L25.9409 29.7306L25.442 30.0799ZM23.6454 27.5141L23.296 27.0152L22.7971 27.3646L23.1464 27.8635L23.6454 27.5141ZM28.777 23.921L29.2759 23.5716L28.9265 23.0727L28.4276 23.422L28.777 23.921ZM30.1537 31.3481C31.8463 30.1629 32.2577 27.83 31.0725 26.1374L30.0746 26.8361C30.8739 27.9776 30.5965 29.5509 29.455 30.3502L30.1537 31.3481ZM29.455 30.3502C28.3135 31.1495 26.7402 30.872 25.9409 29.7306L24.943 30.4293C26.1282 32.1219 28.4611 32.5332 30.1537 31.3481L29.455 30.3502ZM25.9409 29.7306L24.1443 27.1648L23.1464 27.8635L24.943 30.4293L25.9409 29.7306ZM23.9947 28.0131L26.5605 26.2165L25.8618 25.2186L23.296 27.0152L23.9947 28.0131ZM28.4276 23.422L25.8618 25.2186L26.5605 26.2165L29.1263 24.4199L28.4276 23.422ZM31.0725 26.1374L29.2759 23.5716L28.278 24.2703L30.0746 26.8361L31.0725 26.1374Z" fill="white"/>
<path d="M26.2838 15.7396L16.0221 10.4977C16.0221 10.4977 15.7327 10.3327 15.5353 10.4709C15.338 10.6091 15.3941 10.9375 15.3941 10.9375L16.8102 22.3731C16.8102 22.3731 16.9337 23.3897 17.4174 24.0805C17.9011 24.7713 18.9127 25.1659 18.9127 25.1659L23.6454 27.5141L28.777 23.921L28.189 18.6706C28.189 18.6706 28.1642 17.5849 27.6805 16.8941C27.1968 16.2034 26.2838 15.7396 26.2838 15.7396Z" stroke="white" stroke-width="1.2182"/>
<path d="M15.5692 10.5201L20.5098 17.576" stroke="white" stroke-width="1.2182"/>
<path d="M20.4719 20.0297C20.0161 19.3787 20.1743 18.4815 20.8253 18.0257C21.4763 17.5699 22.3735 17.7281 22.8293 18.379C23.2851 19.03 23.1269 19.9272 22.4759 20.383C21.825 20.8389 20.9277 20.6807 20.4719 20.0297Z" stroke="white" stroke-width="1.2182"/>
<rect x="55.7354" y="0.735069" width="38.9824" height="38.9823" rx="19.4911" fill="#EF5840"/>
<rect x="65.4812" y="12.917" width="19.207" height="14.9069" rx="1.8273" stroke="white" stroke-width="1.2182"/>
<path d="M64.8721 16.608H85.2973" stroke="white" stroke-width="1.2182"/>
<path d="M70.5156 12.3079V16.608" stroke="white" stroke-width="1.2182"/>
<rect x="108.116" y="0.735062" width="38.9824" height="38.9823" rx="19.4911" fill="#EF5840"/>
<path d="M120.908 14.1352C120.908 14.1352 122.126 12.0034 127.304 12.0034C132.481 12.0034 133.699 14.1352 133.699 14.1352V25.7081C133.699 25.7081 132.786 28.449 127.304 28.449C121.822 28.449 120.908 25.7081 120.908 25.7081V14.1352Z" stroke="white" stroke-width="1.2182" stroke-linecap="round" stroke-linejoin="round"/>
<path d="M133.699 22.0535C133.699 22.0535 132.786 24.4899 127.304 24.4899C121.822 24.4899 120.908 22.0535 120.908 22.0535" stroke="white" stroke-width="1.2182" stroke-linecap="round" stroke-linejoin="round"/>
<path d="M133.699 18.3989C133.699 18.3989 132.786 20.2262 127.304 20.2262C121.822 20.2262 120.908 18.3989 120.908 18.3989" stroke="white" stroke-width="1.2182" stroke-linecap="round" stroke-linejoin="round"/>
<path d="M123.954 15.6693C124.817 15.8449 125.913 15.9625 127.304 15.9625C131.284 15.9625 132.856 14.9993 133.419 14.4716" stroke="white" stroke-width="1.2182" stroke-linecap="round" stroke-linejoin="round"/>
<path d="M21.3064 62.511H16.38C16.29 61.8736 16.1063 61.3075 15.8289 60.8126C15.5514 60.3102 15.1952 59.8828 14.7603 59.5304C14.3254 59.1779 13.823 58.908 13.2532 58.7205C12.6908 58.5331 12.0797 58.4394 11.4198 58.4394C10.2276 58.4394 9.18904 58.7355 8.30423 59.3279C7.41942 59.9128 6.73332 60.7676 6.24592 61.8924C5.75853 63.0096 5.51483 64.3668 5.51483 65.964C5.51483 67.6061 5.75853 68.9858 6.24592 70.1031C6.74082 71.2203 7.43067 72.0639 8.31548 72.6338C9.20029 73.2037 10.2238 73.4886 11.3861 73.4886C12.0384 73.4886 12.642 73.4024 13.1969 73.2299C13.7593 73.0574 14.2579 72.8062 14.6929 72.4763C15.1278 72.1389 15.4877 71.7302 15.7726 71.2503C16.0651 70.7704 16.2675 70.2231 16.38 69.6082L21.3064 69.6307C21.179 70.6879 20.8603 71.7077 20.3504 72.69C19.848 73.6648 19.1694 74.5384 18.3146 75.3107C17.4673 76.0755 16.455 76.6829 15.2777 77.1328C14.108 77.5752 12.7845 77.7964 11.3073 77.7964C9.25278 77.7964 7.41567 77.3315 5.79602 76.4017C4.18387 75.4719 2.90914 74.126 1.97185 72.3638C1.04205 70.6017 0.577148 68.4684 0.577148 65.964C0.577148 63.452 1.04954 61.315 1.99434 59.5529C2.93914 57.7908 4.22136 56.4485 5.84101 55.5262C7.46066 54.5964 9.28277 54.1315 11.3073 54.1315C12.642 54.1315 13.8793 54.319 15.019 54.6939C16.1663 55.0688 17.1823 55.6162 18.0671 56.3361C18.9519 57.0484 19.6718 57.922 20.2267 58.9567C20.789 59.9915 21.149 61.1763 21.3064 62.511Z" fill="#D9E3EA"/>
<path d="M32.2101 77.8189C30.463 77.8189 28.952 77.4477 27.6773 76.7054C26.4101 75.9556 25.4315 74.9133 24.7417 73.5786C24.0518 72.2364 23.7069 70.6805 23.7069 68.9108C23.7069 67.1262 24.0518 65.5666 24.7417 64.2319C25.4315 62.8896 26.4101 61.8474 27.6773 61.105C28.952 60.3552 30.463 59.9803 32.2101 59.9803C33.9572 59.9803 35.4644 60.3552 36.7316 61.105C38.0063 61.8474 38.9886 62.8896 39.6785 64.2319C40.3683 65.5666 40.7132 67.1262 40.7132 68.9108C40.7132 70.6805 40.3683 72.2364 39.6785 73.5786C38.9886 74.9133 38.0063 75.9556 36.7316 76.7054C35.4644 77.4477 33.9572 77.8189 32.2101 77.8189ZM32.2326 74.1072C33.0274 74.1072 33.691 73.8823 34.2234 73.4324C34.7558 72.975 35.1569 72.3526 35.4269 71.5653C35.7043 70.7779 35.843 69.8819 35.843 68.8771C35.843 67.8723 35.7043 66.9763 35.4269 66.1889C35.1569 65.4016 34.7558 64.7792 34.2234 64.3218C33.691 63.8644 33.0274 63.6357 32.2326 63.6357C31.4302 63.6357 30.7554 63.8644 30.208 64.3218C29.6681 64.7792 29.2595 65.4016 28.982 66.1889C28.7121 66.9763 28.5771 67.8723 28.5771 68.8771C28.5771 69.8819 28.7121 70.7779 28.982 71.5653C29.2595 72.3526 29.6681 72.975 30.208 73.4324C30.7554 73.8823 31.4302 74.1072 32.2326 74.1072Z" fill="#D9E3EA"/>
<path d="M49.8904 77.7627C48.5782 77.7627 47.3897 77.4252 46.3249 76.7504C45.2676 76.068 44.4278 75.067 43.8055 73.7473C43.1906 72.4201 42.8832 70.7929 42.8832 68.8658C42.8832 66.8863 43.2018 65.2404 43.8392 63.9282C44.4766 62.6085 45.3239 61.6224 46.3812 60.9701C47.4459 60.3102 48.6119 59.9803 49.8792 59.9803C50.8464 59.9803 51.6525 60.1452 52.2974 60.4752C52.9497 60.7976 53.4746 61.2025 53.872 61.6899C54.277 62.1698 54.5844 62.6422 54.7943 63.1071H54.9406V54.4465H59.7208V77.4815H54.9968V74.7146H54.7943C54.5694 75.1945 54.2507 75.6706 53.8383 76.143C53.4334 76.6079 52.9047 76.9941 52.2524 77.3015C51.6075 77.6089 50.8202 77.7627 49.8904 77.7627ZM51.4088 73.9497C52.1812 73.9497 52.8335 73.7398 53.3659 73.3199C53.9058 72.8925 54.3182 72.2963 54.6031 71.5315C54.8956 70.7667 55.0418 69.8706 55.0418 68.8433C55.0418 67.8161 54.8993 66.9238 54.6144 66.1664C54.3294 65.4091 53.917 64.8242 53.3771 64.4118C52.8373 63.9994 52.1812 63.7932 51.4088 63.7932C50.6215 63.7932 49.9579 64.0069 49.418 64.4343C48.8781 64.8617 48.4695 65.4541 48.192 66.2114C47.9146 66.9688 47.7759 67.8461 47.7759 68.8433C47.7759 69.8481 47.9146 70.7367 48.192 71.509C48.477 72.2739 48.8856 72.8737 49.418 73.3086C49.9579 73.736 50.6215 73.9497 51.4088 73.9497Z" fill="#D9E3EA"/>
<path d="M71.229 77.8189C69.4519 77.8189 67.9222 77.459 66.64 76.7391C65.3653 76.0118 64.383 74.9845 63.6931 73.6573C63.0033 72.3226 62.6583 70.7442 62.6583 68.9221C62.6583 67.145 63.0033 65.5853 63.6931 64.2431C64.383 62.9009 65.354 61.8549 66.6062 61.105C67.866 60.3552 69.3431 59.9803 71.0378 59.9803C72.1775 59.9803 73.2386 60.164 74.2209 60.5314C75.2106 60.8913 76.0729 61.435 76.8078 62.1623C77.5501 62.8896 78.1275 63.8044 78.5399 64.9067C78.9523 66.0015 79.1585 67.2837 79.1585 68.7534V70.0693H64.5704V67.1H74.6483C74.6483 66.4101 74.4983 65.799 74.1983 65.2666C73.8984 64.7342 73.4823 64.3181 72.9499 64.0181C72.425 63.7107 71.8139 63.557 71.1165 63.557C70.3892 63.557 69.7443 63.7257 69.1819 64.0631C68.6271 64.3931 68.1921 64.8392 67.8772 65.4016C67.5623 65.9565 67.4011 66.5751 67.3936 67.2574V70.0806C67.3936 70.9354 67.551 71.674 67.866 72.2964C68.1884 72.9187 68.6421 73.3986 69.2269 73.736C69.8118 74.0735 70.5054 74.2422 71.3077 74.2422C71.8401 74.2422 72.3275 74.1672 72.7699 74.0172C73.2123 73.8673 73.591 73.6423 73.9059 73.3424C74.2208 73.0424 74.4608 72.675 74.6258 72.2401L79.0573 72.5325C78.8324 73.5973 78.3712 74.5271 77.6738 75.3219C76.984 76.1093 76.0917 76.7241 74.9969 77.1665C73.9097 77.6014 72.6537 77.8189 71.229 77.8189Z" fill="#D9E3EA"/>
<path d="M101.338 54.4465V77.4815H97.1313L87.1097 62.9834H86.941V77.4815H82.0708V54.4465H86.3449L96.2877 68.9333H96.4902V54.4465H101.338Z" fill="#D9E3EA"/>
<path d="M112.84 77.8189C111.063 77.8189 109.534 77.459 108.251 76.7391C106.977 76.0118 105.994 74.9845 105.305 73.6573C104.615 72.3226 104.27 70.7442 104.27 68.9221C104.27 67.145 104.615 65.5853 105.305 64.2431C105.994 62.9009 106.965 61.8549 108.218 61.105C109.477 60.3552 110.955 59.9803 112.649 59.9803C113.789 59.9803 114.85 60.164 115.832 60.5314C116.822 60.8913 117.684 61.435 118.419 62.1623C119.162 62.8896 119.739 63.8044 120.151 64.9067C120.564 66.0015 120.77 67.2837 120.77 68.7534V70.0693H106.182V67.1H116.26C116.26 66.4101 116.11 65.799 115.81 65.2666C115.51 64.7342 115.094 64.3181 114.561 64.0181C114.036 63.7107 113.425 63.557 112.728 63.557C112.001 63.557 111.356 63.7257 110.793 64.0631C110.239 64.3931 109.804 64.8392 109.489 65.4016C109.174 65.9565 109.013 66.5751 109.005 67.2574V70.0806C109.005 70.9354 109.163 71.674 109.477 72.2964C109.8 72.9187 110.254 73.3986 110.838 73.736C111.423 74.0735 112.117 74.2422 112.919 74.2422C113.452 74.2422 113.939 74.1672 114.381 74.0172C114.824 73.8673 115.202 73.6423 115.517 73.3424C115.832 73.0424 116.072 72.675 116.237 72.2401L120.669 72.5325C120.444 73.5973 119.983 74.5271 119.285 75.3219C118.595 76.1093 117.703 76.7241 116.608 77.1665C115.521 77.6014 114.265 77.8189 112.84 77.8189Z" fill="#D9E3EA"/>
<path d="M137.967 65.1317L133.58 65.4016C133.505 65.0267 133.344 64.6893 133.096 64.3893C132.849 64.0819 132.523 63.8382 132.118 63.6582C131.721 63.4708 131.244 63.377 130.69 63.377C129.947 63.377 129.321 63.5345 128.811 63.8494C128.301 64.1569 128.046 64.5693 128.046 65.0867C128.046 65.4991 128.211 65.8478 128.541 66.1327C128.871 66.4176 129.437 66.6463 130.24 66.8188L133.366 67.4487C135.046 67.7936 136.298 68.3485 137.123 69.1133C137.948 69.8781 138.36 70.8829 138.36 72.1276C138.36 73.2599 138.027 74.2534 137.359 75.1082C136.699 75.9631 135.792 76.6304 134.637 77.1103C133.49 77.5827 132.167 77.8189 130.667 77.8189C128.38 77.8189 126.558 77.3428 125.201 76.3905C123.851 75.4307 123.06 74.126 122.827 72.4763L127.54 72.2289C127.683 72.9262 128.028 73.4586 128.575 73.826C129.122 74.1859 129.823 74.3659 130.678 74.3659C131.518 74.3659 132.193 74.2047 132.703 73.8823C133.22 73.5523 133.483 73.1287 133.49 72.6113C133.483 72.1764 133.299 71.8202 132.939 71.5428C132.579 71.2578 132.024 71.0404 131.274 70.8904L128.283 70.2943C126.595 69.9569 125.339 69.372 124.515 68.5397C123.697 67.7073 123.289 66.6463 123.289 65.3566C123.289 64.2468 123.589 63.2908 124.188 62.4885C124.796 61.6862 125.647 61.0675 126.742 60.6326C127.844 60.1977 129.134 59.9803 130.611 59.9803C132.793 59.9803 134.51 60.4414 135.762 61.3637C137.022 62.286 137.757 63.542 137.967 65.1317Z" fill="#D9E3EA"/>
<path d="M150.262 60.2052V63.8044H139.858V60.2052H150.262ZM142.22 56.0661H147.012V72.1726C147.012 72.615 147.079 72.96 147.214 73.2074C147.349 73.4474 147.537 73.6161 147.777 73.7135C148.024 73.811 148.309 73.8598 148.631 73.8598C148.856 73.8598 149.081 73.841 149.306 73.8035C149.531 73.7585 149.704 73.7248 149.824 73.7023L150.577 77.2678C150.337 77.3428 150 77.429 149.565 77.5265C149.13 77.6314 148.601 77.6952 147.979 77.7177C146.824 77.7627 145.812 77.6089 144.942 77.2565C144.08 76.9041 143.409 76.3567 142.929 75.6144C142.449 74.872 142.213 73.9347 142.22 72.8025V56.0661Z" fill="#D9E3EA"/>
</svg>
