<svg width="201" height="24" viewBox="0 0 201 24" fill="none" xmlns="http://www.w3.org/2000/svg">
<rect x="0.103516" y="0.0197144" width="23.9606" height="23.9606" rx="11.9803" fill="#EF5840"/>
<path d="M16.8342 15.8483L17.1409 15.6335L16.8342 15.8483ZM12.5758 16.4797L12.361 16.1731L12.0544 16.3878L12.2691 16.6945L12.5758 16.4797ZM14.1529 15.3755L13.9381 15.0688L14.1529 15.3755ZM15.7299 14.2712L16.0366 14.0564L15.8219 13.7498L15.5152 13.9645L15.7299 14.2712ZM16.5761 18.8363C17.6165 18.1078 17.8693 16.6739 17.1409 15.6335L16.5275 16.063C17.0188 16.7646 16.8483 17.7316 16.1467 18.2229L16.5761 18.8363ZM16.1467 18.2229C15.4451 18.7142 14.478 18.5437 13.9867 17.8421L13.3734 18.2715C14.1019 19.3119 15.5358 19.5647 16.5761 18.8363L16.1467 18.2229ZM13.9867 17.8421L12.8825 16.265L12.2691 16.6945L13.3734 18.2715L13.9867 17.8421ZM12.7905 16.7864L14.3676 15.6821L13.9381 15.0688L12.361 16.1731L12.7905 16.7864ZM15.5152 13.9645L13.9381 15.0688L14.3676 15.6821L15.9447 14.5779L15.5152 13.9645ZM17.1409 15.6335L16.0366 14.0564L15.4232 14.4859L16.5275 16.063L17.1409 15.6335Z" fill="white"/>
<path d="M14.1981 9.24248L7.89074 6.02051C7.89074 6.02051 7.71285 5.91908 7.59153 6.00403C7.47022 6.08897 7.50469 6.29083 7.50469 6.29083L8.3751 13.3198C8.3751 13.3198 8.45101 13.9446 8.74832 14.3692C9.04562 14.7938 9.66745 15.0364 9.66745 15.0364L12.5764 16.4797L15.7305 14.2712L15.3692 11.044C15.3692 11.044 15.3539 10.3767 15.0566 9.95211C14.7593 9.52751 14.1981 9.24248 14.1981 9.24248Z" stroke="white" stroke-width="0.748769"/>
<path d="M7.61266 6.03431L10.6494 10.3712" stroke="white" stroke-width="0.748769"/>
<path d="M10.6249 11.8794C10.3447 11.4793 10.4419 10.9278 10.8421 10.6476C11.2422 10.3675 11.7937 10.4647 12.0738 10.8648C12.354 11.2649 12.2568 11.8164 11.8566 12.0966C11.4565 12.3768 10.905 12.2795 10.6249 11.8794Z" stroke="white" stroke-width="0.748769"/>
<rect x="32.3018" y="0.0197144" width="23.9606" height="23.9606" rx="11.9803" fill="#EF5840"/>
<rect x="38.2924" y="7.50741" width="11.8056" height="9.16261" rx="1.12315" stroke="white" stroke-width="0.748769"/>
<path d="M37.918 9.77606H50.4724" stroke="white" stroke-width="0.748769"/>
<path d="M41.3867 7.13303V9.77606" stroke="white" stroke-width="0.748769"/>
<rect x="64.498" y="0.0197144" width="23.9606" height="23.9606" rx="11.9803" fill="#EF5840"/>
<path d="M72.3604 8.25618C72.3604 8.25618 73.1091 6.94583 76.2914 6.94583C79.4737 6.94583 80.2224 8.25618 80.2224 8.25618V15.3695C80.2224 15.3695 79.6609 17.0542 76.2914 17.0542C72.9219 17.0542 72.3604 15.3695 72.3604 15.3695V8.25618Z" stroke="white" stroke-width="0.748769" stroke-linecap="round" stroke-linejoin="round"/>
<path d="M80.2224 13.1232C80.2224 13.1232 79.6609 14.6207 76.2914 14.6207C72.9219 14.6207 72.3604 13.1232 72.3604 13.1232" stroke="white" stroke-width="0.748769" stroke-linecap="round" stroke-linejoin="round"/>
<path d="M80.2224 10.8769C80.2224 10.8769 79.6609 12 76.2914 12C72.9219 12 72.3604 10.8769 72.3604 10.8769" stroke="white" stroke-width="0.748769" stroke-linecap="round" stroke-linejoin="round"/>
<path d="M74.2324 9.19913C74.7625 9.30704 75.4366 9.37934 76.2915 9.37934C78.7378 9.37934 79.7041 8.78732 80.0499 8.46292" stroke="white" stroke-width="0.748769" stroke-linecap="round" stroke-linejoin="round"/>
<path d="M120.648 9.53726H117.62C117.564 9.1455 117.451 8.79753 117.281 8.49334C117.11 8.18455 116.891 7.92184 116.624 7.70522C116.357 7.4886 116.048 7.32268 115.698 7.20746C115.352 7.09224 114.976 7.03463 114.571 7.03463C113.838 7.03463 113.2 7.21668 112.656 7.58078C112.112 7.94027 111.69 8.46569 111.391 9.15702C111.091 9.84375 110.941 10.678 110.941 11.6597C110.941 12.669 111.091 13.517 111.391 14.2038C111.695 14.8905 112.119 15.409 112.663 15.7593C113.206 16.1096 113.836 16.2847 114.55 16.2847C114.951 16.2847 115.322 16.2317 115.663 16.1257C116.009 16.0197 116.315 15.8653 116.583 15.6625C116.85 15.4551 117.071 15.2039 117.246 14.9089C117.426 14.614 117.55 14.2775 117.62 13.8996L120.648 13.9134C120.569 14.5633 120.373 15.1901 120.06 15.7938C119.751 16.393 119.334 16.9299 118.809 17.4047C118.288 17.8748 117.666 18.2481 116.942 18.5246C116.223 18.7965 115.41 18.9325 114.502 18.9325C113.239 18.9325 112.11 18.6468 111.114 18.0752C110.123 17.5037 109.34 16.6764 108.764 15.5934C108.192 14.5103 107.906 13.199 107.906 11.6597C107.906 10.1157 108.197 8.80214 108.777 7.71905C109.358 6.63595 110.146 5.81096 111.142 5.24407C112.137 4.67256 113.257 4.38681 114.502 4.38681C115.322 4.38681 116.082 4.50203 116.783 4.73248C117.488 4.96292 118.113 5.29937 118.657 5.74183C119.2 6.17967 119.643 6.71661 119.984 7.35264C120.33 7.98867 120.551 8.71687 120.648 9.53726Z" fill="#D9E3EA"/>
<path d="M127.35 18.9463C126.276 18.9463 125.347 18.7182 124.563 18.2619C123.785 17.801 123.183 17.1604 122.759 16.34C122.335 15.515 122.123 14.5587 122.123 13.471C122.123 12.374 122.335 11.4154 122.759 10.595C123.183 9.77001 123.785 9.12937 124.563 8.67309C125.347 8.2122 126.276 7.98175 127.35 7.98175C128.423 7.98175 129.35 8.2122 130.129 8.67309C130.912 9.12937 131.516 9.77001 131.94 10.595C132.364 11.4154 132.576 12.374 132.576 13.471C132.576 14.5587 132.364 15.515 131.94 16.34C131.516 17.1604 130.912 17.801 130.129 18.2619C129.35 18.7182 128.423 18.9463 127.35 18.9463ZM127.363 16.6649C127.852 16.6649 128.26 16.5267 128.587 16.2501C128.914 15.969 129.161 15.5864 129.327 15.1025C129.497 14.6186 129.583 14.0678 129.583 13.4502C129.583 12.8326 129.497 12.2819 129.327 11.7979C129.161 11.314 128.914 10.9315 128.587 10.6503C128.26 10.3692 127.852 10.2286 127.363 10.2286C126.87 10.2286 126.455 10.3692 126.119 10.6503C125.787 10.9315 125.536 11.314 125.365 11.7979C125.199 12.2819 125.117 12.8326 125.117 13.4502C125.117 14.0678 125.199 14.6186 125.365 15.1025C125.536 15.5864 125.787 15.969 126.119 16.2501C126.455 16.5267 126.87 16.6649 127.363 16.6649Z" fill="#D9E3EA"/>
<path d="M138.217 18.9118C137.41 18.9118 136.68 18.7044 136.025 18.2896C135.375 17.8702 134.859 17.2549 134.477 16.4437C134.099 15.6279 133.91 14.6278 133.91 13.4433C133.91 12.2266 134.106 11.2149 134.497 10.4083C134.889 9.59717 135.41 8.9911 136.06 8.59013C136.714 8.18455 137.431 7.98175 138.21 7.98175C138.804 7.98175 139.3 8.08315 139.696 8.28594C140.097 8.48412 140.42 8.733 140.664 9.03258C140.913 9.32755 141.102 9.61791 141.231 9.90367H141.321V4.58038H144.259V18.7389H141.355V17.0382H141.231C141.093 17.3332 140.897 17.6259 140.643 17.9162C140.395 18.202 140.07 18.4394 139.669 18.6283C139.272 18.8173 138.788 18.9118 138.217 18.9118ZM139.15 16.5681C139.625 16.5681 140.026 16.4391 140.353 16.181C140.685 15.9183 140.938 15.5519 141.113 15.0818C141.293 14.6117 141.383 14.0609 141.383 13.4295C141.383 12.7981 141.296 12.2496 141.12 11.7841C140.945 11.3186 140.692 10.9591 140.36 10.7056C140.028 10.4521 139.625 10.3254 139.15 10.3254C138.666 10.3254 138.258 10.4567 137.926 10.7194C137.595 10.9821 137.343 11.3463 137.173 11.8118C137.002 12.2772 136.917 12.8165 136.917 13.4295C136.917 14.0471 137.002 14.5932 137.173 15.0679C137.348 15.538 137.599 15.9068 137.926 16.1741C138.258 16.4368 138.666 16.5681 139.15 16.5681Z" fill="#D9E3EA"/>
<path d="M151.333 18.9463C150.24 18.9463 149.3 18.7251 148.512 18.2826C147.728 17.8356 147.125 17.2042 146.701 16.3884C146.277 15.568 146.065 14.5978 146.065 13.4779C146.065 12.3856 146.277 11.4269 146.701 10.6019C147.125 9.77692 147.722 9.13398 148.491 8.67309C149.266 8.2122 150.173 7.98175 151.215 7.98175C151.916 7.98175 152.568 8.09467 153.172 8.32051C153.78 8.54174 154.31 8.87588 154.762 9.32294C155.218 9.77001 155.573 10.3323 155.826 11.0098C156.08 11.6827 156.207 12.4708 156.207 13.3742V14.183H147.24V12.3579H153.434C153.434 11.9339 153.342 11.5583 153.158 11.231C152.973 10.9038 152.718 10.648 152.39 10.4636C152.068 10.2747 151.692 10.1802 151.263 10.1802C150.816 10.1802 150.42 10.2839 150.074 10.4913C149.733 10.6941 149.466 10.9683 149.272 11.314C149.079 11.655 148.98 12.0353 148.975 12.4547V14.1899C148.975 14.7154 149.072 15.1693 149.266 15.5519C149.464 15.9344 149.743 16.2294 150.102 16.4368C150.462 16.6442 150.888 16.7479 151.381 16.7479C151.708 16.7479 152.008 16.7018 152.28 16.6096C152.552 16.5174 152.784 16.3792 152.978 16.1948C153.172 16.0105 153.319 15.7846 153.42 15.5173L156.144 15.6971C156.006 16.3515 155.723 16.923 155.294 17.4116C154.87 17.8955 154.321 18.2734 153.649 18.5454C152.98 18.8127 152.208 18.9463 151.333 18.9463Z" fill="#D9E3EA"/>
<path d="M169.839 4.58038V18.7389H167.254L161.094 9.82762H160.99V18.7389H157.997V4.58038H160.624L166.735 13.4848H166.859V4.58038H169.839Z" fill="#D9E3EA"/>
<path d="M176.909 18.9463C175.817 18.9463 174.877 18.7251 174.089 18.2826C173.305 17.8356 172.701 17.2042 172.277 16.3884C171.853 15.568 171.641 14.5978 171.641 13.4779C171.641 12.3856 171.853 11.4269 172.277 10.6019C172.701 9.77692 173.298 9.13398 174.068 8.67309C174.842 8.2122 175.75 7.98175 176.792 7.98175C177.492 7.98175 178.144 8.09467 178.748 8.32051C179.357 8.54174 179.887 8.87588 180.338 9.32294C180.795 9.77001 181.149 10.3323 181.403 11.0098C181.656 11.6827 181.783 12.4708 181.783 13.3742V14.183H172.817V12.3579H179.011C179.011 11.9339 178.919 11.5583 178.734 11.231C178.55 10.9038 178.294 10.648 177.967 10.4636C177.644 10.2747 177.269 10.1802 176.84 10.1802C176.393 10.1802 175.997 10.2839 175.651 10.4913C175.31 10.6941 175.043 10.9683 174.849 11.314C174.655 11.655 174.556 12.0353 174.552 12.4547V14.1899C174.552 14.7154 174.649 15.1693 174.842 15.5519C175.04 15.9344 175.319 16.2294 175.679 16.4368C176.038 16.6442 176.464 16.7479 176.958 16.7479C177.285 16.7479 177.584 16.7018 177.856 16.6096C178.128 16.5174 178.361 16.3792 178.555 16.1948C178.748 16.0105 178.896 15.7846 178.997 15.5173L181.721 15.6971C181.583 16.3515 181.299 16.923 180.871 17.4116C180.447 17.8955 179.898 18.2734 179.225 18.5454C178.557 18.8127 177.785 18.9463 176.909 18.9463Z" fill="#D9E3EA"/>
<path d="M192.353 11.1481L189.657 11.314C189.611 11.0835 189.512 10.8761 189.36 10.6918C189.208 10.5028 189.007 10.353 188.758 10.2424C188.514 10.1272 188.221 10.0696 187.88 10.0696C187.424 10.0696 187.039 10.1664 186.726 10.3599C186.412 10.5489 186.256 10.8024 186.256 11.1204C186.256 11.3739 186.357 11.5882 186.56 11.7634C186.763 11.9385 187.111 12.0791 187.604 12.1851L189.526 12.5722C190.558 12.7842 191.328 13.1253 191.835 13.5954C192.342 14.0655 192.595 14.6831 192.595 15.4482C192.595 16.1441 192.39 16.7548 191.98 17.2802C191.574 17.8056 191.017 18.2158 190.307 18.5108C189.602 18.8011 188.788 18.9463 187.866 18.9463C186.461 18.9463 185.341 18.6537 184.506 18.0683C183.677 17.4784 183.191 16.6764 183.048 15.6625L185.944 15.5104C186.032 15.939 186.244 16.2663 186.581 16.4921C186.917 16.7133 187.348 16.8239 187.873 16.8239C188.389 16.8239 188.804 16.7248 189.118 16.5267C189.436 16.3239 189.597 16.0635 189.602 15.7454C189.597 15.4781 189.484 15.2592 189.263 15.0887C189.042 14.9135 188.701 14.7799 188.24 14.6877L186.401 14.3213C185.364 14.1139 184.592 13.7544 184.085 13.2428C183.582 12.7312 183.331 12.0791 183.331 11.2863C183.331 10.6042 183.516 10.0166 183.884 9.52343C184.258 9.03028 184.781 8.65004 185.454 8.38273C186.131 8.11541 186.924 7.98175 187.832 7.98175C189.173 7.98175 190.228 8.2652 190.998 8.8321C191.772 9.39899 192.224 10.171 192.353 11.1481Z" fill="#D9E3EA"/>
<path d="M199.911 8.12002V10.3323H193.516V8.12002H199.911ZM194.968 5.57591H197.913V15.4758C197.913 15.7478 197.954 15.9598 198.037 16.1119C198.12 16.2593 198.235 16.363 198.383 16.423C198.535 16.4829 198.71 16.5128 198.908 16.5128C199.046 16.5128 199.185 16.5013 199.323 16.4783C199.461 16.4506 199.567 16.4299 199.641 16.416L200.104 18.6076C199.957 18.6537 199.749 18.7067 199.482 18.7666C199.215 18.8311 198.89 18.8703 198.507 18.8841C197.797 18.9118 197.175 18.8173 196.641 18.6007C196.111 18.384 195.698 18.0476 195.403 17.5913C195.108 17.135 194.963 16.5589 194.968 15.863V5.57591Z" fill="#D9E3EA"/>
</svg>
